<svg width="458" height="38" viewBox="0 0 458 38" fill="none" xmlns="http://www.w3.org/2000/svg">
<g clip-path="url(#clip0_58_1756)">
<path d="M10.276 11.2092C13.8523 11.2908 17.6015 11.2619 21.1805 11.2291C22.7132 11.2641 24.0782 11.1808 25.6109 11.2158C32.0876 11.1347 38.5643 11.0536 45.0409 10.9726C52.88 10.9226 60.5514 10.7543 68.3905 10.7043C79.4705 10.4994 90.548 10.4088 101.628 10.2039C104.185 10.1478 106.74 10.2061 109.297 10.15C115.773 10.069 122.25 9.98787 128.724 10.0212C135.201 9.9401 141.678 9.85901 148.152 9.89233C150.709 9.83624 153.266 9.78015 155.82 9.83846C166.044 9.8429 176.437 9.85123 186.661 9.85566C192.964 9.8851 199.268 9.91453 205.745 9.83344C208.299 9.89176 210.686 9.83177 213.241 9.89009C223.121 10.0012 233.171 10.1161 243.051 10.2272C252.931 10.3383 262.641 10.4454 272.521 10.5565C275.076 10.6148 277.63 10.6731 280.355 10.7353C286.826 10.8831 293.128 11.0269 299.599 11.1746C309.647 11.404 319.524 11.6295 329.575 11.7444C332.81 11.8183 336.046 11.8921 339.282 11.966C346.094 12.1215 352.906 12.277 359.718 12.4325C360.229 12.4442 360.91 12.4597 361.421 12.4714C346.091 12.2359 330.591 11.9966 315.259 11.8755C308.785 11.8422 302.484 11.6983 296.01 11.665C293.285 11.6028 290.39 11.5367 287.662 11.5889C278.293 11.4895 269.092 11.5084 259.722 11.409C248.988 11.3929 238.257 11.2624 227.522 11.2463C225.649 11.2035 223.944 11.2791 222.07 11.2363C216.275 11.3329 210.652 11.319 204.857 11.4157C193.268 11.4945 181.68 11.5734 170.092 11.6523C168.389 11.6134 166.683 11.6889 164.977 11.7645C159.352 11.865 153.554 12.076 147.929 12.1766C137.701 12.4009 127.642 12.6292 117.414 12.8536C114.686 12.9058 111.786 13.0685 109.059 13.1207C102.579 13.3162 96.1 13.5117 89.6181 13.8216C81.4332 14.0926 73.078 14.3597 64.8931 14.6308C53.4672 15.0567 41.871 15.4788 30.4452 15.9048C27.7178 15.957 24.9877 16.1236 22.09 16.1719C17.1434 16.4024 12.1968 16.6329 7.25025 16.8633C6.73935 16.8517 6.22322 17.0688 6.21278 17.5265C6.20494 17.8697 6.70801 18.2245 7.21892 18.2362C9.09223 18.279 10.7926 18.4323 12.6659 18.475C12.3123 19.0393 12.1342 19.3786 12.1263 19.7218C12.0976 20.9803 13.6042 22.1593 15.6478 22.206C29.7959 21.9566 43.7763 21.5889 57.9217 21.454C70.1912 21.3907 82.4634 21.2129 94.7329 21.1496C108.197 20.9991 121.832 20.8525 135.293 20.8164C139.553 20.7992 143.814 20.782 148.076 20.6503C149.269 20.6775 150.463 20.5904 151.826 20.6215C173.632 20.7758 195.441 20.8158 217.247 20.9702C228.833 21.0057 240.589 21.0452 252.172 21.1951C256.432 21.1779 260.52 21.2712 264.78 21.254C287.095 21.5344 309.409 21.8149 331.724 22.0953C341.263 22.1986 350.803 22.3019 360.342 22.4052C368.519 22.4774 376.694 22.664 384.874 22.6218C391.688 22.6629 398.335 22.5857 405.15 22.6268C408.559 22.5901 411.965 22.6679 415.203 22.6273C422.874 22.4591 430.546 22.2908 438.217 22.1225C437.696 22.5685 437.68 23.2549 437.84 23.7164C437.997 24.2923 438.498 24.7616 439.344 25.0099C440.02 25.2542 441.036 25.5064 441.723 25.2931C443.436 24.8743 445.15 24.4556 446.693 24.033C446.693 24.033 446.693 24.033 446.523 24.0291C446.693 24.033 446.696 23.9186 446.866 23.9224C447.036 23.9263 447.209 23.8158 447.209 23.8158L447.039 23.8119C447.895 23.6026 448.752 23.3932 449.782 23.0733C450.639 22.8639 451.668 22.544 452.525 22.3347C453.555 22.0148 454.414 21.691 455.444 21.3711C456.473 21.0512 457.175 20.1515 457.194 19.3507C457.204 18.893 457.042 18.5459 456.711 18.0805C456.381 17.6151 455.543 17.0237 454.694 16.8898C453.845 16.756 452.996 16.6222 452.145 16.6027C451.974 16.5988 451.804 16.5949 451.634 16.5911C451.123 16.5794 450.442 16.5638 449.928 16.6666C448.563 16.7499 447.368 16.8371 446.006 16.806C444.984 16.7827 443.96 16.8737 442.768 16.8465C439.87 16.8948 437.142 16.947 434.242 17.1098C433.561 17.0942 432.707 17.1892 432.026 17.1736C432.371 16.9526 432.547 16.7277 432.552 16.4989C432.728 16.2739 432.733 16.0451 432.738 15.8163C432.741 15.7019 432.746 15.4731 432.919 15.3626C432.924 15.1338 432.929 14.905 432.762 14.7867C432.762 14.7867 432.932 14.7906 432.935 14.6762C433.451 14.459 433.967 14.2419 434.318 13.792C434.666 13.4566 434.847 13.0028 434.858 12.5452C434.868 12.0876 434.705 11.7405 434.375 11.2751C434.208 11.1568 434.043 10.9241 433.875 10.8058C433.372 10.4509 432.864 10.3249 432.355 10.1988C431.339 9.94666 430.149 9.80504 428.957 9.77783C427.935 9.7545 427.084 9.73506 426.062 9.71174C424.699 9.68064 423.337 9.64954 421.975 9.61844C420.101 9.57568 418.058 9.52903 416.184 9.48626C411.075 9.36964 405.966 9.25301 400.857 9.13639C396.089 9.02754 391.15 8.9148 386.382 8.80595C381.954 8.70487 377.696 8.60769 373.268 8.50661C355.727 8.1062 338.354 7.82408 320.81 7.53807C307.695 7.35314 294.579 7.16821 281.466 6.86887C275.675 6.73669 269.712 6.71504 263.919 6.69727C250.801 6.62674 237.685 6.44181 224.567 6.37128C220.82 6.28576 217.071 6.31464 213.324 6.22911C211.11 6.17857 209.064 6.24633 206.85 6.19579C193.899 6.24356 180.949 6.29132 167.998 6.33909C164.078 6.36408 160.159 6.38908 156.069 6.41018C153.855 6.35964 151.639 6.42351 149.422 6.48738C136.469 6.64955 123.686 6.81561 110.732 6.97778C104.085 7.05498 97.4383 7.13218 90.7888 7.32378C79.3681 7.52094 67.9475 7.7181 56.6945 8.03355C46.8066 8.2657 36.9213 8.38344 27.036 8.50118C25.5007 8.5806 23.968 8.54561 22.2623 8.62114C19.7052 8.67724 17.1507 8.61892 14.5936 8.67502C12.3692 9.0821 9.98497 9.02768 7.77105 8.97714C7.6112 8.51563 6.93783 8.15686 6.42431 8.25961C4.8916 8.22462 3.52658 8.30792 1.99126 8.38734C1.30744 8.4862 0.62101 8.69946 0.440263 9.15319C0.256904 9.72133 0.75475 10.305 1.43334 10.435C2.11194 10.5649 2.79053 10.6949 3.46912 10.8248C4.14772 10.9548 4.65862 10.9665 5.33983 10.982C7.04023 11.1353 8.57294 11.1703 10.276 11.2092ZM408.865 16.6449C410.908 16.6916 413.122 16.7421 415.166 16.7888C415.328 17.1359 415.664 17.3725 415.999 17.6091C415.147 17.5896 414.293 17.6846 413.612 17.669C412.079 17.634 410.544 17.7135 409.011 17.6785C402.197 17.6374 395.55 17.7146 388.735 17.6735C385.667 17.7179 382.599 17.7623 379.534 17.6924C374.765 17.5835 369.824 17.5852 365.055 17.4763C353.983 17.3381 343.081 17.2037 332.009 17.0654C310.546 16.8044 289.253 16.5472 267.79 16.2862C252.46 16.0508 237.125 16.0441 221.79 16.0374C198.789 15.9702 175.62 15.7848 152.619 15.7176C148.018 15.727 143.418 15.7365 138.814 15.8603C125.691 16.0186 112.57 16.0625 99.446 16.2208C86.6629 16.3868 73.7122 16.4346 60.9291 16.6006C59.737 16.5734 58.5423 16.6606 57.3502 16.6334C60.7614 16.4823 64.3404 16.4496 67.7516 16.2985C79.8561 16.0025 91.9631 15.5921 104.068 15.2961C108.33 15.1644 112.593 15.0328 116.686 14.8973C118.902 14.8334 121.119 14.7696 123.162 14.8162C135.945 14.6502 148.561 14.3658 161.173 14.1959C163.56 14.1359 166.117 14.0798 168.504 14.0198C172.083 13.987 175.662 13.9543 179.068 14.032C192.019 13.9843 204.97 13.9365 217.92 13.8887C220.818 13.8404 223.713 13.9065 226.441 13.8543C227.122 13.8698 227.973 13.8893 228.654 13.9048C230.698 13.9515 232.742 13.9981 234.618 13.9265C247.566 13.9931 260.682 14.1781 273.63 14.2447C279.593 14.2664 285.556 14.288 291.517 14.4241C310.763 14.749 330.18 15.0777 349.427 15.4026C369.522 15.8613 389.28 16.1979 408.865 16.6449Z" fill="#D21338"/>
<path d="M35.4239 27.8016C35.9387 27.8133 36.3626 27.5351 36.3707 27.1802C36.3788 26.8252 35.968 26.528 35.4532 26.5162C34.9384 26.5045 34.5144 26.7827 34.5063 27.1376C34.4982 27.4926 34.909 27.7898 35.4239 27.8016Z" fill="#D21338"/>
</g>
<defs>
<clipPath id="clip0_58_1756">
<rect width="456.9" height="27" fill="white" transform="translate(0.61618) rotate(1.30768)"/>
</clipPath>
</defs>
</svg>
