<svg width="35" height="35" viewBox="0 0 35 35" fill="none" xmlns="http://www.w3.org/2000/svg">
<path d="M18.5826 5.65673L21.6952 11.9628C21.7818 12.1382 21.9098 12.29 22.0681 12.405C22.2264 12.52 22.4103 12.5948 22.604 12.6229L29.563 13.6343C29.7859 13.6667 29.9953 13.7608 30.1675 13.906C30.3397 14.0512 30.4678 14.2417 30.5374 14.4559C30.607 14.6702 30.6152 14.8996 30.5612 15.1183C30.5071 15.3369 30.3929 15.5361 30.2316 15.6933L25.1952 20.6017C24.9104 20.8793 24.7812 21.2788 24.8476 21.6698L26.0364 28.601C26.0744 28.823 26.0496 29.0512 25.9647 29.2597C25.8799 29.4683 25.7383 29.649 25.5562 29.7813C25.374 29.9137 25.1584 29.9924 24.9338 30.0086C24.7092 30.0248 24.4845 29.9779 24.2852 29.8731L18.06 26.6C17.8867 26.5091 17.6939 26.4616 17.4982 26.4616C17.3025 26.4616 17.1097 26.5091 16.9364 26.6L10.7112 29.8731C10.5119 29.9779 10.2873 30.0248 10.0627 30.0086C9.83806 29.9924 9.62248 29.9137 9.44029 29.7813C9.2581 29.649 9.11657 29.4683 9.03169 29.2597C8.94682 29.0512 8.922 28.823 8.96003 28.601L10.1488 21.6698C10.1819 21.477 10.1676 21.2789 10.107 21.0928C10.0464 20.9067 9.94151 20.7382 9.80124 20.6017L4.76486 15.6933C4.60349 15.5361 4.48933 15.3369 4.43528 15.1183C4.38123 14.8996 4.38946 14.6702 4.45903 14.4559C4.5286 14.2417 4.65674 14.0512 4.82895 13.906C5.00116 13.7608 5.21056 13.6667 5.43348 13.6343L12.3924 12.6229C12.5861 12.5948 12.77 12.52 12.9283 12.405C13.0866 12.29 13.2146 12.1382 13.3012 11.9628L16.4138 5.65673C16.8604 4.76001 18.1397 4.76001 18.5826 5.65673Z" fill="#D21338"/>
</svg>
