<svg width="60" height="60" viewBox="0 0 60 60" fill="none" xmlns="http://www.w3.org/2000/svg">
<path d="M41.0158 28.98C32.796 28.98 26.1119 35.676 26.1119 43.896C26.1119 52.116 32.796 58.8 41.0158 58.8C49.236 58.8 55.9201 52.116 55.9201 43.896C55.9201 35.676 49.236 28.98 41.0158 28.98ZM34.1123 40.5094C34.1123 39.8462 34.6491 39.3094 35.3123 39.3094H37.0127C37.676 39.3094 38.2127 39.8462 38.2127 40.5094C38.2127 41.1727 37.676 41.7094 37.0127 41.7094H35.3123C34.6491 41.7094 34.1123 41.1727 34.1123 40.5094ZM47.2596 49.2223C45.5815 50.9005 43.376 51.7407 41.1717 51.7407C38.9674 51.7407 36.762 50.9005 35.0838 49.2223C34.6151 48.7536 34.6151 47.9942 35.0838 47.5255C35.5526 47.0567 36.312 47.0567 36.7807 47.5255C39.2018 49.9466 43.1416 49.9466 45.5627 47.5255C46.0315 47.0567 46.7909 47.0567 47.2596 47.5255C47.7283 47.9942 47.7283 48.7536 47.2596 49.2223ZM46.717 41.7094H45.0166C44.3534 41.7094 43.8166 41.1727 43.8166 40.5094C43.8166 39.8462 44.3534 39.3094 45.0166 39.3094H46.717C47.3803 39.3094 47.917 39.8462 47.917 40.5094C47.917 41.1727 47.3803 41.7094 46.717 41.7094ZM15.936 6.61201V36.912C15.936 37.584 15.396 38.112 14.736 38.112H8.08792C7.42786 38.112 6.88792 37.584 6.88792 36.912V6.61201C6.88792 5.95202 7.42786 5.41201 8.08792 5.41201H14.736C15.396 5.41201 15.936 5.95202 15.936 6.61201ZM47.6158 2.4V27.9C45.5879 27.048 43.3559 26.58 41.0158 26.58C40.1879 26.58 39.372 26.64 38.5679 26.76V2.4C38.5679 1.74001 39.108 1.2 39.7679 1.2H46.4158C47.0759 1.2 47.6158 1.74001 47.6158 2.4ZM26.496 2.4V34.5C25.7639 35.616 25.1639 36.828 24.708 38.112H18.66C17.9879 38.112 17.46 37.584 17.46 36.912V2.4C17.46 1.74001 17.9879 1.2 18.66 1.2H25.296C25.9559 1.2 26.496 1.74001 26.496 2.4ZM37.0559 9.98401V27.048C33.48 27.876 30.336 29.82 28.008 32.496V9.98401C28.008 9.32402 28.548 8.78401 29.208 8.78401H35.8559C36.5158 8.78401 37.0559 9.32402 37.0559 9.98401ZM23.9399 41.1C23.808 41.88 23.736 42.684 23.724 43.5H5.27996C4.60803 43.5 4.07996 42.972 4.07996 42.3C4.07996 41.64 4.60803 41.1 5.27996 41.1H23.9399Z" fill="#D21338"/>
</svg>
