<svg width="70" height="70" viewBox="0 0 70 70" fill="none" xmlns="http://www.w3.org/2000/svg">
<path d="M51.45 37.044C50.764 37.142 50.064 37.191 49.35 37.191C48.636 37.191 47.936 37.142 47.25 37.044V38.08C47.25 48.314 39.991 57.057 29.995 58.87C29.918 58.884 29.834 58.891 29.75 58.891C29.666 58.891 29.582 58.884 29.498 58.87C19.502 57.064 12.25 48.321 12.25 38.087V18.305C12.25 17.528 12.873 16.905 13.65 16.905H16.45C20.937 16.905 25.263 15.582 28.966 13.083C29.442 12.761 30.058 12.761 30.534 13.083C32.025 14.091 33.628 14.896 35.294 15.512C35.889 14.189 36.666 12.964 37.59 11.872C34.615 10.941 31.92 9.247 29.75 6.916C26.313 10.612 21.553 12.705 16.45 12.705H9.44999C8.67299 12.705 8.04999 13.328 8.04999 14.105V38.031C8.04999 50.624 17.36 61.362 29.75 63.091C42.133 61.362 51.45 50.624 51.45 38.031C51.45 37.989 51.457 37.947 51.464 37.898H51.45V37.044Z" fill="#D21338"/>
<path d="M29.75 15.904C25.76 18.389 21.182 19.698 16.45 19.698H15.05V38.08C15.05 46.872 21.217 54.397 29.75 56.07C38.283 54.397 44.45 46.872 44.45 38.08V36.393C38.353 34.335 33.95 28.574 33.95 21.798C33.95 20.545 34.104 19.327 34.384 18.165C32.774 17.57 31.22 16.821 29.75 15.904Z" fill="#D21338"/>
<path d="M49.35 9.205C42.399 9.205 36.75 14.854 36.75 21.805C36.75 28.749 42.399 34.398 49.35 34.398C56.294 34.398 61.95 28.749 61.95 21.805C61.95 14.854 56.294 9.205 49.35 9.205ZM56.637 18.585L48.237 26.985C47.964 27.258 47.607 27.398 47.25 27.398C46.893 27.398 46.529 27.258 46.256 26.985L42.056 22.785C41.51 22.239 41.51 21.35 42.056 20.804C42.609 20.258 43.491 20.258 44.037 20.804L44.534 21.301L47.25 24.017L52.682 18.585L54.656 16.604C55.209 16.058 56.091 16.058 56.637 16.604C57.183 17.157 57.183 18.046 56.637 18.585Z" fill="#D21338"/>
</svg>
