<svg width="65" height="65" viewBox="0 0 65 65" fill="none" xmlns="http://www.w3.org/2000/svg">
<path d="M51.1374 0H13.8626C6.2065 0 0 6.2065 0 13.8626V51.1374C0 58.7935 6.2065 65 13.8626 65H51.1374C58.7935 65 65 58.7935 65 51.1374V13.8626C65 6.2065 58.7935 0 51.1374 0Z" fill="#D21338"/>
<path fill-rule="evenodd" clip-rule="evenodd" d="M52.2704 22.641C50.8453 23.2719 49.3337 23.6859 47.786 23.8692C49.4046 22.898 50.6423 21.3652 51.2136 19.5467C49.6825 20.4541 48.0084 21.0948 46.2627 21.4413C45.1929 20.293 43.802 19.4937 42.2712 19.1477C40.7405 18.8017 39.141 18.9251 37.6814 19.5018C36.2218 20.0784 34.9698 21.0815 34.0889 22.3803C33.2079 23.6791 32.7388 25.2133 32.7428 26.7826C32.7409 27.3818 32.808 27.9792 32.9427 28.5631C29.8372 28.4073 26.799 27.6004 24.0254 26.1948C21.2517 24.7891 18.8046 22.816 16.8427 20.4035C15.8391 22.1233 15.5305 24.1615 15.9801 26.1012C16.4296 28.0409 17.6033 29.7356 19.261 30.8386C18.019 30.7996 16.8044 30.4633 15.7192 29.8579V29.9531C15.7192 33.7425 18.4137 36.9035 21.9841 37.6175C20.8355 37.931 19.6303 37.9766 18.4613 37.7508C18.9606 39.3022 19.9317 40.6589 21.2391 41.6318C22.5465 42.6047 24.125 43.1452 25.7544 43.1778C24.1338 44.4517 22.2779 45.3933 20.2928 45.9488C18.3078 46.5042 16.2327 46.6627 14.1863 46.415C17.6425 48.6334 21.746 49.9187 26.1638 49.9187C40.5405 49.9187 48.3954 38.0174 48.3954 27.6871C48.3954 27.3539 48.3954 27.0207 48.3763 26.6779C49.8997 25.583 51.2326 24.2024 52.2799 22.641H52.2704Z" fill="white"/>
</svg>
