<svg width="65" height="65" viewBox="0 0 65 65" fill="none" xmlns="http://www.w3.org/2000/svg">
<path d="M50.4105 0H14.5895C6.53196 0 0 6.53196 0 14.5895V50.4105C0 58.468 6.53196 65 14.5895 65H50.4105C58.468 65 65 58.468 65 50.4105V14.5895C65 6.53196 58.468 0 50.4105 0Z" fill="#D21338"/>
<path fill-rule="evenodd" clip-rule="evenodd" d="M18.0118 44.5116C17.3621 44.3147 16.7692 43.9644 16.2833 43.4902C15.7974 43.0161 15.4327 42.432 15.2199 41.7873C14.0042 38.4551 13.6439 24.541 15.9854 21.7942C16.7648 20.9007 17.865 20.3506 19.0474 20.2632C25.3291 19.5878 44.7367 19.6779 46.9657 20.4884C47.5926 20.6918 48.1654 21.0344 48.6411 21.4906C49.1168 21.9468 49.4831 22.5047 49.7125 23.1226C51.0409 26.5674 51.0859 39.0855 49.5324 42.3952C49.1203 43.2567 48.4304 43.9546 47.5736 44.3765C45.2321 45.5473 21.1188 45.5248 18.0118 44.5116V44.5116ZM27.9858 37.9823L39.2432 32.1285L27.9858 26.2296V37.9823Z" fill="white"/>
</svg>
