<svg width="1512" height="1494" viewBox="0 0 1512 1494" fill="none" xmlns="http://www.w3.org/2000/svg">
<g opacity="0.89">
<g opacity="0.89">
<path opacity="0.89" d="M778 1493C1275.06 1493 1678 1090.06 1678 593C1678 95.9437 1275.06 -307 778 -307C280.944 -307 -122 95.9437 -122 593C-122 1090.06 280.944 1493 778 1493Z" stroke="#CC1808" stroke-opacity="0.09" stroke-width="0.8127" stroke-linecap="round" stroke-linejoin="round"/>
</g>
<g opacity="0.89">
<path opacity="0.89" d="M778 1427.36C1238.81 1427.36 1612.36 1053.81 1612.36 593C1612.36 132.194 1238.81 -241.363 778 -241.363C317.194 -241.363 -56.3635 132.194 -56.3635 593C-56.3635 1053.81 317.194 1427.36 778 1427.36Z" stroke="#CC1808" stroke-opacity="0.09" stroke-width="0.9493" stroke-linecap="round" stroke-linejoin="round"/>
</g>
<g opacity="0.89">
<path opacity="0.89" d="M778 1361.73C1202.56 1361.73 1546.73 1017.56 1546.73 593C1546.73 168.444 1202.56 -175.727 778 -175.727C353.444 -175.727 9.27313 168.444 9.27313 593C9.27313 1017.56 353.444 1361.73 778 1361.73Z" stroke="#CC1808" stroke-opacity="0.09" stroke-width="1.0859" stroke-linecap="round" stroke-linejoin="round"/>
</g>
<g opacity="0.89">
<path opacity="0.89" d="M778 1296.09C1166.31 1296.09 1481.09 981.306 1481.09 593C1481.09 204.694 1166.31 -110.09 778 -110.09C389.694 -110.09 74.9097 204.694 74.9097 593C74.9097 981.306 389.694 1296.09 778 1296.09Z" stroke="#CC1808" stroke-opacity="0.09" stroke-width="1.2225" stroke-linecap="round" stroke-linejoin="round"/>
</g>
<g opacity="0.89">
<path opacity="0.89" d="M778 1230.45C1130.06 1230.45 1415.45 945.056 1415.45 593C1415.45 240.944 1130.06 -44.4536 778 -44.4536C425.944 -44.4536 140.546 240.944 140.546 593C140.546 945.056 425.944 1230.45 778 1230.45Z" stroke="#CC1808" stroke-opacity="0.09" stroke-width="1.3591" stroke-linecap="round" stroke-linejoin="round"/>
</g>
<g opacity="0.89">
<path opacity="0.89" d="M778 1164.82C1093.81 1164.82 1349.82 908.806 1349.82 593C1349.82 277.194 1093.81 21.1829 778 21.1829C462.194 21.1829 206.183 277.194 206.183 593C206.183 908.806 462.194 1164.82 778 1164.82Z" stroke="#CC1808" stroke-opacity="0.09" stroke-width="1.4956" stroke-linecap="round" stroke-linejoin="round"/>
</g>
<g opacity="0.89">
<path opacity="0.89" d="M778 1099.18C1057.56 1099.18 1284.18 872.556 1284.18 593C1284.18 313.444 1057.56 86.8195 778 86.8195C498.444 86.8195 271.82 313.444 271.82 593C271.82 872.556 498.444 1099.18 778 1099.18Z" stroke="#CC1808" stroke-opacity="0.09" stroke-width="1.6322" stroke-linecap="round" stroke-linejoin="round"/>
</g>
<g opacity="0.89">
<path opacity="0.89" d="M778 1033.54C1021.31 1033.54 1218.54 836.306 1218.54 593C1218.54 349.694 1021.31 152.456 778 152.456C534.694 152.456 337.456 349.694 337.456 593C337.456 836.306 534.694 1033.54 778 1033.54Z" stroke="#CC1808" stroke-opacity="0.09" stroke-width="1.7688" stroke-linecap="round" stroke-linejoin="round"/>
</g>
<g opacity="0.89">
<path opacity="0.89" d="M778 968.019C985.117 968.019 1153.02 800.117 1153.02 593C1153.02 385.883 985.117 217.982 778 217.982C570.883 217.982 402.981 385.883 402.981 593C402.981 800.117 570.883 968.019 778 968.019Z" stroke="#CC1808" stroke-opacity="0.09" stroke-width="1.9054" stroke-linecap="round" stroke-linejoin="round"/>
</g>
<g opacity="0.89">
<path opacity="0.89" d="M778 902.382C948.867 902.382 1087.38 763.867 1087.38 593C1087.38 422.133 948.867 283.618 778 283.618C607.133 283.618 468.618 422.133 468.618 593C468.618 763.867 607.133 902.382 778 902.382Z" stroke="#CC1808" stroke-opacity="0.09" stroke-width="2.042" stroke-linecap="round" stroke-linejoin="round"/>
</g>
<g opacity="0.89">
<path opacity="0.89" d="M778 836.745C912.617 836.745 1021.75 727.617 1021.75 593C1021.75 458.383 912.617 349.255 778 349.255C643.383 349.255 534.255 458.383 534.255 593C534.255 727.617 643.383 836.745 778 836.745Z" stroke="#CC1808" stroke-opacity="0.09" stroke-width="2.1786" stroke-linecap="round" stroke-linejoin="round"/>
</g>
<g opacity="0.89">
<path opacity="0.89" d="M778 771.109C876.367 771.109 956.109 691.367 956.109 593C956.109 494.633 876.367 414.891 778 414.891C679.633 414.891 599.891 494.633 599.891 593C599.891 691.367 679.633 771.109 778 771.109Z" stroke="#CC1808" stroke-opacity="0.09" stroke-width="2.3152" stroke-linecap="round" stroke-linejoin="round"/>
</g>
</g>
</svg>
