<svg width="65" height="65" viewBox="0 0 65 65" fill="none" xmlns="http://www.w3.org/2000/svg">
<path d="M56.875 0H8.125C3.64406 0 0 3.64406 0 8.125V56.875C0 61.3559 3.64406 65 8.125 65H56.875C61.3559 65 65 61.3559 65 56.875V8.125C65 3.64406 61.3559 0 56.875 0Z" fill="#D21338"/>
<path fill-rule="evenodd" clip-rule="evenodd" d="M54.8438 32.5H44.6875V24.375C44.6875 22.1325 46.5075 22.3438 48.75 22.3438H52.8125V12.1875H44.6875C41.4552 12.1875 38.3552 13.4715 36.0696 15.7571C33.784 18.0427 32.5 21.1427 32.5 24.375V32.5H24.375V42.6562H32.5V65H44.6875V42.6562H50.7812L54.8438 32.5Z" fill="white"/>
</svg>
