<svg width="65" height="65" viewBox="0 0 65 65" fill="none" xmlns="http://www.w3.org/2000/svg">
<path d="M21.6684 32.5C21.6684 26.5172 26.5172 21.6658 32.5 21.6658C38.4828 21.6658 43.3342 26.5172 43.3342 32.5C43.3342 38.4828 38.4828 43.3342 32.5 43.3342C26.5172 43.3342 21.6684 38.4828 21.6684 32.5ZM15.8116 32.5C15.8116 41.7171 23.2829 49.1884 32.5 49.1884C41.7171 49.1884 49.1884 41.7171 49.1884 32.5C49.1884 23.2829 41.7171 15.8116 32.5 15.8116C23.2829 15.8116 15.8116 23.2829 15.8116 32.5ZM45.9489 15.15C45.9489 17.3027 47.6947 19.0511 49.85 19.0511C52.0026 19.0511 53.751 17.3027 53.751 15.15C53.751 12.9974 52.0053 11.2516 49.85 11.2516C47.6947 11.2516 45.9489 12.9974 45.9489 15.15ZM19.3687 58.9542C16.2001 58.8098 14.478 58.2821 13.3334 57.8358C11.816 57.2452 10.7345 56.5416 9.59511 55.4049C8.4584 54.2682 7.75222 53.1866 7.16418 51.6692C6.71789 50.5246 6.19023 48.8025 6.04584 45.6339C5.88833 42.208 5.85683 41.1789 5.85683 32.5C5.85683 23.8211 5.89095 22.7946 6.04584 19.3661C6.19023 16.1975 6.72052 14.478 7.16418 13.3308C7.75485 11.8134 8.4584 10.7318 9.59511 9.59249C10.7318 8.45578 11.8134 7.7496 13.3334 7.16155C14.478 6.71527 16.2001 6.1876 19.3687 6.04321C22.7946 5.8857 23.8237 5.8542 32.5 5.8542C41.1789 5.8542 42.2054 5.88833 45.6339 6.04321C48.8025 6.1876 50.522 6.71789 51.6692 7.16155C53.1866 7.7496 54.2682 8.45578 55.4075 9.59249C56.5442 10.7292 57.2478 11.8134 57.8384 13.3308C58.2847 14.4754 58.8124 16.1975 58.9568 19.3661C59.1143 22.7946 59.1458 23.8211 59.1458 32.5C59.1458 41.1763 59.1143 42.2054 58.9568 45.6339C58.8124 48.8025 58.2821 50.5246 57.8384 51.6692C57.2478 53.1866 56.5442 54.2682 55.4075 55.4049C54.2708 56.5416 53.1866 57.2452 51.6692 57.8358C50.5246 58.2821 48.8025 58.8098 45.6339 58.9542C42.208 59.1117 41.1789 59.1432 32.5 59.1432C23.8237 59.1432 22.7946 59.1117 19.3687 58.9542M19.101 0.19689C15.641 0.354402 13.2783 0.903069 11.2122 1.70638C9.07532 2.53595 7.26393 3.64903 5.45517 5.45517C3.64903 7.26131 2.53595 9.0727 1.70638 11.2122C0.903069 13.2783 0.354402 15.641 0.19689 19.101C0.0367528 22.5662 0 23.6741 0 32.5C0 41.3259 0.0367528 42.4338 0.19689 45.899C0.354402 49.359 0.903069 51.7217 1.70638 53.7878C2.53595 55.9247 3.64641 57.7387 5.45517 59.5448C7.26131 61.351 9.0727 62.4614 11.2122 63.2936C13.2809 64.0969 15.641 64.6456 19.101 64.8031C22.5689 64.9606 23.6741 65 32.5 65C41.3286 65 42.4338 64.9632 45.899 64.8031C49.359 64.6456 51.7217 64.0969 53.7878 63.2936C55.9247 62.4614 57.7361 61.351 59.5448 59.5448C61.351 57.7387 62.4614 55.9247 63.2936 53.7878C64.0969 51.7217 64.6482 49.359 64.8031 45.899C64.9606 42.4311 64.9974 41.3259 64.9974 32.5C64.9974 23.6741 64.9606 22.5662 64.8031 19.101C64.6456 15.641 64.0969 13.2783 63.2936 11.2122C62.4614 9.07532 61.351 7.26393 59.5448 5.45517C57.7387 3.64903 55.9247 2.53595 53.7904 1.70638C51.7217 0.903069 49.359 0.351777 45.9017 0.19689C42.4364 0.039378 41.3286 0 32.5026 0C23.6741 0 22.5689 0.0367528 19.101 0.19689" fill="#D21338"/>
</svg>
