<svg width="65" height="65" viewBox="0 0 65 65" fill="none" xmlns="http://www.w3.org/2000/svg">
<g clip-path="url(#clip0_67_19)">
<path d="M32.5 0.00012207C14.5507 0.00012207 6.10352e-05 14.5507 6.10352e-05 32.5001C6.10352e-05 50.4494 14.5507 65 32.5 65C50.4493 65 65.0001 50.4494 65.0001 32.5001C64.9999 14.5507 50.4491 0.00012207 32.5 0.00012207ZM23.829 48.2123H16.6933V25.1589H23.829V48.2123ZM20.2271 22.1399C17.8967 22.1399 16.0074 20.2353 16.0074 17.8861C16.0074 15.5368 17.8969 13.6323 20.2271 13.6323C22.5573 13.6323 24.4465 15.5368 24.4465 17.8861C24.4466 20.2354 22.5574 22.1399 20.2271 22.1399V22.1399ZM50.5699 48.2123H43.4688V36.1112C43.4688 32.7922 42.2081 30.9395 39.5837 30.9395C36.7275 30.9395 35.2354 32.8691 35.2354 36.1112V48.2123H28.3914V25.1589H35.2354V28.2638C35.2354 28.2638 37.294 24.4557 42.1823 24.4557C47.0707 24.4557 50.5701 27.4405 50.5701 33.6152L50.5699 48.2123V48.2123Z" fill="#D21338"/>
</g>
<defs>
<clipPath id="clip0_67_19">
<rect width="65" height="65" fill="white"/>
</clipPath>
</defs>
</svg>
