<svg width="60" height="60" viewBox="0 0 60 60" fill="none" xmlns="http://www.w3.org/2000/svg">
<path d="M15.822 20.745C16.422 20.745 17.004 20.832 17.55 21.003C19.6205 18.6831 21.9146 16.5729 24.399 14.703C24.1437 13.6348 24.1935 12.5163 24.543 11.475C21.7407 9.46665 18.7081 7.80081 15.51 6.513C12.4955 8.37746 9.86613 10.8022 7.76401 13.656C9.32101 16.416 11.172 18.987 13.278 21.327C14.046 20.955 14.907 20.745 15.822 20.745ZM9.94801 26.616C9.94801 25.791 10.122 25.005 10.425 24.297C8.53676 22.2218 6.83517 19.9841 5.34001 17.61C3.40349 21.4539 2.39648 25.6988 2.40001 30.003C2.39484 34.9727 3.73749 39.8509 6.28501 44.118C7.15636 39.2382 8.79677 34.5275 11.145 30.162C10.3679 29.1433 9.94728 27.8973 9.94801 26.616ZM30.108 7.467C31.659 7.467 33.063 8.07 34.116 9.054C37.2141 7.7167 40.448 6.71888 43.761 6.078C39.5773 3.66304 34.8307 2.39436 30 2.4C26.6841 2.39793 23.3952 2.99555 20.292 4.164C22.6812 5.34405 24.9663 6.72396 27.123 8.289C27.999 7.767 29.016 7.467 30.108 7.467ZM38.886 35.124C39.247 34.3655 39.7679 33.6941 40.413 33.156C38.6953 27.881 35.9733 22.9881 32.397 18.747C31.4717 19.1385 30.4614 19.286 29.4629 19.1751C28.4643 19.0643 27.5109 18.6989 26.694 18.114C24.5663 19.7302 22.5938 21.541 20.802 23.523C21.2532 24.2373 21.5425 25.0417 21.6498 25.8797C21.7571 26.7177 21.6797 27.5691 21.423 28.374C26.6739 31.8865 32.6378 34.1917 38.886 35.124ZM46.503 43.053C46.7222 46.1356 46.6409 49.2322 46.26 52.299C50.9984 48.8425 54.5149 43.9686 56.301 38.382C54.1491 38.9034 51.9624 39.2694 49.758 39.477C49.5003 40.2699 49.0768 40.9989 48.5156 41.6155C47.9543 42.2321 47.2683 42.7221 46.503 43.053ZM37.512 39.072C30.8374 37.9602 24.4821 35.4181 18.882 31.62C17.6064 32.4045 16.0788 32.6707 14.613 32.364C11.9176 37.467 10.2856 43.064 9.81601 48.816C12.4607 51.6601 15.6758 53.9141 19.251 55.431C23.783 48.458 30.0845 42.8129 37.512 39.072ZM48.528 9.543C44.1967 9.96661 39.9552 11.047 35.949 12.747C36.0587 13.8358 35.8602 14.9336 35.376 15.915C39.3501 20.5757 42.3757 25.9676 44.283 31.788C45.4199 31.8085 46.5265 32.158 47.4688 32.7942C48.4112 33.4305 49.149 34.3262 49.593 35.373C52.251 35.103 54.837 34.593 57.327 33.861C57.9637 29.397 57.4944 24.8449 55.9602 20.6047C54.4259 16.3645 51.8738 12.566 48.528 9.543ZM40.467 42.207C33.5483 45.4466 27.6208 50.476 23.298 56.775C25.4897 57.3237 27.7406 57.6007 30 57.6C34.0238 57.6035 37.9993 56.7238 41.646 55.023C42.216 52.239 42.516 49.362 42.516 46.416C42.516 45.351 42.468 44.295 42.387 43.251C41.6863 43.0285 41.0346 42.6742 40.467 42.207Z" fill="#D21338"/>
</svg>
