<svg width="40" height="40" viewBox="0 0 40 40" fill="none" xmlns="http://www.w3.org/2000/svg">
<path d="M37.4613 20C37.4613 19.4625 37.7488 18.75 38.0238 18.05C38.4988 16.875 39.0363 15.5375 38.5738 14.1875C38.1113 12.8125 36.8363 12.025 35.7238 11.325C35.0863 10.9375 34.4238 10.525 34.1113 10.125C33.7988 9.7125 33.5988 9.0125 33.3988 8.275C33.0488 7.05 32.6613 5.65 31.4613 4.8125C30.2863 4 28.8113 4.075 27.4988 4.1375C26.7238 4.175 25.9238 4.2125 25.3863 4.0375C24.8863 3.8875 24.3113 3.4375 23.7113 2.975C22.675 2.1625 21.5 1.25 20 1.25C18.5 1.25 17.325 2.1625 16.2875 2.975C15.6875 3.4375 15.1125 3.8875 14.6125 4.0375C14.075 4.2125 13.275 4.175 12.5 4.1375C11.1875 4.075 9.71251 4 8.53751 4.8125C7.33751 5.65 6.95001 7.05 6.60001 8.275C6.40001 9.0125 6.20001 9.7125 5.88751 10.125C5.57501 10.525 4.91251 10.9375 4.28751 11.325C3.16251 12.025 1.88751 12.8125 1.42501 14.1875C0.962507 15.5375 1.50001 16.875 1.97501 18.05C2.25001 18.75 2.53751 19.4625 2.53751 20C2.53751 20.5375 2.25001 21.25 1.97501 21.95C1.50001 23.125 0.962507 24.4625 1.42501 25.8125C1.88751 27.1875 3.16251 27.975 4.27501 28.675C4.91251 29.0625 5.57501 29.475 5.88751 29.875C6.20001 30.2875 6.40001 30.9875 6.60001 31.725C6.95001 32.95 7.33751 34.35 8.53751 35.1875C9.71251 36 11.1875 35.925 12.5 35.8625C13.275 35.825 14.075 35.7875 14.6125 35.9625C15.1125 36.1125 15.6875 36.5625 16.2875 37.025C17.325 37.8375 18.5 38.75 20 38.75C21.5 38.75 22.675 37.8375 23.7125 37.025C24.3125 36.5625 24.8875 36.1125 25.3875 35.9625C25.925 35.7875 26.725 35.825 27.5 35.8625C28.8125 35.925 30.2875 36 31.4625 35.1875C32.6625 34.35 33.05 32.95 33.4 31.725C33.6 30.9875 33.8 30.2875 34.1125 29.875C34.425 29.475 35.0875 29.0625 35.7125 28.675C36.8375 27.975 38.1125 27.1875 38.575 25.8125C39.0375 24.4625 38.5 23.125 38.025 21.95C37.7488 21.25 37.4613 20.5375 37.4613 20ZM15 23.75C15 24.3 14.6375 24.7875 14.1125 24.95C13.9875 24.9875 13.875 25 13.75 25C13.3375 25 12.95 24.8 12.7125 24.4375L10 20.375V23.75C10 24.4375 9.43751 25 8.75001 25C8.06251 25 7.50001 24.4375 7.50001 23.75V16.25C7.50001 15.7 7.86251 15.2125 8.38751 15.05C8.91251 14.8875 9.48751 15.1 9.78751 15.5625L12.5 19.625V16.25C12.5 15.5625 13.0625 15 13.75 15C14.4375 15 15 15.5625 15 16.25V23.75ZM21.25 18.75C21.9375 18.75 22.5 19.3125 22.5 20C22.5 20.6875 21.9375 21.25 21.25 21.25H18.75V22.5H21.25C21.9375 22.5 22.5 23.0625 22.5 23.75C22.5 24.4375 21.9375 25 21.25 25H17.5C16.8125 25 16.25 24.4375 16.25 23.75V16.25C16.25 15.5625 16.8125 15 17.5 15H21.25C21.9375 15 22.5 15.5625 22.5 16.25C22.5 16.9375 21.9375 17.5 21.25 17.5H18.75V18.75H21.25ZM31.2363 23.95C31.1363 24.5125 30.6863 24.9375 30.1238 25H29.9988C29.4863 25 29.0113 24.675 28.8238 24.1875L28.1238 22.3125L27.4238 24.1875C27.2238 24.725 26.6863 25.05 26.1238 25C25.5613 24.9375 25.1113 24.5125 25.0113 23.95L23.7613 16.45C23.6488 15.775 24.1113 15.125 24.7988 15.0125C25.4738 14.9 26.1238 15.3625 26.2363 16.05L26.7113 18.95L26.9488 18.3125C27.1363 17.825 27.5988 17.5 28.1238 17.5C28.6488 17.5 29.1113 17.825 29.2988 18.3125L29.5363 18.95L30.0113 16.05C30.1238 15.3625 30.7738 14.9 31.4488 15.0125C32.1363 15.125 32.5988 15.775 32.4863 16.45L31.2363 23.95Z" fill="#CC1808"/>
</svg>
