<svg width="639" height="624" viewBox="0 0 639 624" fill="none" xmlns="http://www.w3.org/2000/svg">
<path d="M337.863 621.733C305.19 616.385 281.749 594.848 261.079 575.846C250.01 565.674 239.541 556.058 228.355 549.157C203.078 533.573 180.538 527.653 158.734 521.929C123.489 512.689 87.0417 503.123 47.8232 454.799C8.33756 406.132 -6.47162 359.803 2.56082 313.164C11.4096 267.424 42.9313 227.882 69.3942 198.56C86.6577 179.411 98.7288 155.715 111.484 130.629C122.587 108.814 134.057 86.2629 149.618 65.805C189.537 13.3602 228.405 -5.46232 279.578 2.91053C299.313 6.13211 319.598 13.0822 341.069 20.4412C360.052 26.9334 379.67 33.6546 401.658 38.9366C403.778 39.4436 406.032 39.9015 408.336 40.2776C419.523 42.1092 431.31 42.1582 443.765 42.2237C457.072 42.2891 470.812 42.3545 484.787 44.644C501.516 47.3749 515.908 52.9514 528.747 61.6677C568.449 88.6014 572.089 119.362 575.612 149.092C577.048 161.21 578.534 173.72 582.491 186.721C587.549 203.303 596.665 218.593 606.316 234.799C621.075 259.558 636.335 285.167 637.854 317.367C640.776 379.345 599.237 413.769 567.748 434.276C557.647 440.866 547.697 446.05 538.08 451.071C518.078 461.504 500.815 470.514 489.478 488.683C486.089 494.112 484.286 503.417 482.549 512.411C480.462 523.205 478.292 534.374 472.966 544.415C453.699 580.784 411.559 619.1 360.853 622.763C353.04 623.286 345.31 622.943 337.863 621.733Z" stroke="#D21338" stroke-miterlimit="10" stroke-dasharray="25 25"/>
<path d="M60.8961 444.627C120.083 517.563 167.933 492.559 237.254 535.306C276.757 559.656 304.071 610.4 359.635 606.41C401.424 603.401 439.424 572.199 458.157 536.843C466.905 520.326 465.703 495.42 475.237 480.13C494.921 448.585 527.411 440.882 558.515 420.637C594.361 397.285 623.496 367.309 621.175 318.103C618.921 270.106 580.103 236.091 566.479 191.381C552.221 144.578 567.548 107.882 519.23 75.0773C480.796 48.9939 437.621 64.3986 397.668 54.7993C295.539 30.2858 239.742 -25.2824 162.991 75.5679C130.885 117.759 116.376 171.152 81.8827 209.37C20.5756 277.35 -17.6244 347.865 60.8961 444.627Z" fill="#D21338"/>
</svg>
