<svg width="64" height="64" viewBox="0 0 64 64" fill="none" xmlns="http://www.w3.org/2000/svg">
<path d="M47.77 9H10.23C6.23698 9 3 12.237 3 16.23V37.77C3 41.763 6.23698 45 10.23 45H47.77C51.763 45 55 41.763 55 37.77V16.23C55 12.237 51.763 9 47.77 9Z" fill="#D21338"/>
<path d="M54.29 40.87L34.9 24.3C33.2683 22.8595 31.1666 22.0645 28.99 22.0645C26.8134 22.0645 24.7118 22.8595 23.08 24.3L3.90002 41.26C4.52342 42.3932 5.43978 43.3382 6.55331 43.9961C7.66684 44.654 8.93666 45.0007 10.23 45H47.77C49.1362 44.999 50.4741 44.6104 51.6282 43.8793C52.7823 43.1483 53.7053 42.1047 54.29 40.87V40.87Z" fill="#D21338"/>
<path d="M53.19 42.56C52.5138 43.3283 51.6815 43.9434 50.7485 44.3642C49.8155 44.785 48.8035 45.0018 47.78 45H10.22C9.26957 45.0013 8.32837 44.8137 7.45112 44.4481C6.57386 44.0824 5.77806 43.546 5.10999 42.87L24.41 25.8C25.6834 24.694 27.3133 24.0851 29 24.0851C30.6866 24.0851 32.3166 24.694 33.59 25.8L53.19 42.56Z" fill="#D21338"/>
<path d="M49 29C45.287 29 41.726 30.475 39.1005 33.1005C36.475 35.726 35 39.287 35 43C35.0078 43.6695 35.0612 44.3378 35.16 45H47.77C49.6875 45 51.5265 44.2383 52.8824 42.8824C54.2383 41.5265 55 39.6875 55 37.77V30.37C53.1278 29.4698 51.0774 29.0016 49 29V29Z" fill="#D21338"/>
<path d="M49 55C55.6274 55 61 49.6274 61 43C61 36.3726 55.6274 31 49 31C42.3726 31 37 36.3726 37 43C37 49.6274 42.3726 55 49 55Z" fill="#F3F5F9"/>
<path d="M47.77 9H10.23C9.02318 8.99977 7.83552 9.30162 6.77528 9.87802C5.71504 10.4544 4.81595 11.2871 4.15997 12.3L23.07 28.3C24.7258 29.7064 26.8275 30.4785 29 30.4785C31.1724 30.4785 33.2742 29.7064 34.93 28.3L53.84 12.3C53.184 11.2871 52.2849 10.4544 51.2247 9.87802C50.1644 9.30162 48.9768 8.99977 47.77 9Z" fill="#D21338"/>
<path d="M52.53 10.78L33.64 26.78C32.3415 27.8743 30.6981 28.4745 29 28.4745C27.3019 28.4745 25.6584 27.8743 24.36 26.78L5.46997 10.78C6.78255 9.62608 8.47231 8.99287 10.22 9H47.78C49.5276 8.99287 51.2174 9.62608 52.53 10.78V10.78Z" fill="#D21338"/>
<path d="M8 19C8 18.4477 7.55228 18 7 18C6.44772 18 6 18.4477 6 19V23C6 23.5523 6.44772 24 7 24C7.55228 24 8 23.5523 8 23V19Z" fill="white"/>
<path d="M7 28C7.55228 28 8 27.5523 8 27C8 26.4477 7.55228 26 7 26C6.44772 26 6 26.4477 6 27C6 27.5523 6.44772 28 7 28Z" fill="white"/>
<path d="M49 51C49.5523 51 50 50.5523 50 50C50 49.4477 49.5523 49 49 49C48.4477 49 48 49.4477 48 50C48 50.5523 48.4477 51 49 51Z" fill="#1E120B"/>
<path d="M44 40C44 40.2652 44.1054 40.5196 44.2929 40.7071C44.4804 40.8946 44.7348 41 45 41C45.2652 41 45.5196 40.8946 45.7071 40.7071C45.8947 40.5196 46 40.2652 46 40C46.0003 39.4501 46.1517 38.9108 46.4378 38.4411C46.7238 37.9714 47.1335 37.5894 47.622 37.3368C48.1104 37.0842 48.6589 36.9707 49.2076 37.0088C49.7562 37.0468 50.2838 37.2349 50.7327 37.5525C51.1816 37.8702 51.5346 38.3051 51.7531 38.8097C51.9716 39.3144 52.0471 39.8694 51.9715 40.4141C51.8959 40.9588 51.672 41.4723 51.3243 41.8983C50.9766 42.3244 50.5185 42.6467 50 42.83C49.422 43.0203 48.9182 43.3869 48.5595 43.8784C48.2007 44.3699 48.005 44.9615 48 45.57V46C48 46.2652 48.1054 46.5196 48.2929 46.7071C48.4804 46.8946 48.7348 47 49 47C49.2652 47 49.5196 46.8946 49.7071 46.7071C49.8947 46.5196 50 46.2652 50 46V45.57C50.0173 45.376 50.0908 45.1913 50.2116 45.0385C50.3324 44.8857 50.4952 44.7716 50.68 44.71C51.8441 44.297 52.8142 43.4678 53.4032 42.382C53.9922 41.2963 54.1585 40.031 53.87 38.83C53.6552 37.9317 53.1958 37.1105 52.5427 36.4574C51.8895 35.8043 51.0683 35.3448 50.17 35.13C49.4341 34.9529 48.6677 34.9451 47.9284 35.1074C47.1891 35.2696 46.4963 35.5975 45.9022 36.0664C45.3081 36.5354 44.8282 37.1331 44.4987 37.8144C44.1692 38.4958 43.9987 39.2431 44 40Z" fill="#1E120B"/>
<path d="M10.23 46H25C25.2652 46 25.5196 45.8946 25.7071 45.7071C25.8946 45.5196 26 45.2652 26 45C26 44.7348 25.8946 44.4804 25.7071 44.2929C25.5196 44.1054 25.2652 44 25 44H10.23C8.94267 44.0006 7.68739 43.5985 6.64 42.85L23.83 27.65C25.284 28.8621 27.117 29.5258 29.01 29.5258C30.903 29.5258 32.736 28.8621 34.19 27.65L40.59 33.11C39.1545 34.3279 38.0006 35.8429 37.208 37.5505C36.4155 39.2581 36.0034 41.1175 36 43V44H33C32.7348 44 32.4804 44.1054 32.2929 44.2929C32.1054 44.4804 32 44.7348 32 45C32 45.2652 32.1054 45.5196 32.2929 45.7071C32.4804 45.8946 32.7348 46 33 46H36.36C36.8478 48.0742 37.838 49.9967 39.2434 51.5983C40.6488 53.1999 42.4264 54.4315 44.4196 55.1847C46.4129 55.9378 48.5607 56.1895 50.6741 55.9175C52.7874 55.6456 54.8016 54.8583 56.5392 53.625C58.2767 52.3917 59.6846 50.7501 60.6387 48.8449C61.5928 46.9396 62.0639 44.8291 62.0107 42.6989C61.9574 40.5688 61.3814 38.4844 60.3333 36.6292C59.2851 34.774 57.7971 33.2049 56 32.06V16.23C55.9974 14.0481 55.1294 11.9563 53.5866 10.4134C52.0437 8.87058 49.9519 8.00265 47.77 8H10.23C8.04808 8.00265 5.95629 8.87058 4.41343 10.4134C2.87058 11.9563 2.00265 14.0481 2 16.23V37.77C2.00265 39.9519 2.87058 42.0437 4.41343 43.5866C5.95629 45.1294 8.04808 45.9974 10.23 46ZM60 43C60 45.1756 59.3549 47.3023 58.1462 49.1113C56.9375 50.9202 55.2195 52.3301 53.2095 53.1627C51.1995 53.9952 48.9878 54.2131 46.854 53.7886C44.7202 53.3642 42.7602 52.3166 41.2218 50.7782C39.6834 49.2398 38.6358 47.2798 38.2114 45.146C37.7869 43.0122 38.0048 40.8005 38.8373 38.7905C39.6699 36.7805 41.0798 35.0625 42.8887 33.8538C44.6977 32.6451 46.8244 32 49 32C51.9174 32 54.7153 33.1589 56.7782 35.2218C58.8411 37.2847 60 40.0826 60 43ZM54 16.23V31C52.1114 30.2108 50.0626 29.8809 48.0217 30.0373C45.9809 30.1938 44.0062 30.8322 42.26 31.9L35.74 26.33L52.47 12.15C53.4569 13.2801 54.0005 14.7297 54 16.23V16.23ZM47.77 10C48.8737 9.99881 49.9576 10.2922 50.91 10.85L33 26C31.8866 26.9561 30.4676 27.4817 29 27.4817C27.5324 27.4817 26.1134 26.9561 25 26L7.09 10.85C8.04236 10.2922 9.12633 9.99881 10.23 10H47.77ZM4 16.23C3.99955 14.7297 4.54314 13.2801 5.53 12.15L22.28 26.35L5.21 41.44C4.42218 40.3788 3.99782 39.0917 4 37.77V16.23Z" fill="#1E120B"/>
<path d="M29 46C29.5523 46 30 45.5523 30 45C30 44.4477 29.5523 44 29 44C28.4477 44 28 44.4477 28 45C28 45.5523 28.4477 46 29 46Z" fill="#1E120B"/>
</svg>
