<svg width="70" height="70" viewBox="0 0 70 70" fill="none" xmlns="http://www.w3.org/2000/svg">
<path d="M61.25 5.83334H8.75C7.97645 5.83334 7.23458 6.14063 6.6876 6.68762C6.14062 7.2346 5.83333 7.97646 5.83333 8.75001V61.25C5.83333 62.0236 6.14062 62.7654 6.6876 63.3124C7.23458 63.8594 7.97645 64.1667 8.75 64.1667H61.25C62.0235 64.1667 62.7654 63.8594 63.3124 63.3124C63.8594 62.7654 64.1667 62.0236 64.1667 61.25V8.75001C64.1667 7.97646 63.8594 7.2346 63.3124 6.68762C62.7654 6.14063 62.0235 5.83334 61.25 5.83334V5.83334ZM51.6804 31.2813C51.3624 31.3123 51.0432 31.3289 50.7238 31.3308C48.9933 31.3331 47.2895 30.9041 45.7664 30.0828C44.2433 29.2614 42.9488 28.0734 42 26.6263V42.6475C42.0006 44.9904 41.3063 47.2808 40.005 49.2291C38.7038 51.1774 36.8539 52.696 34.6895 53.5928C32.5251 54.4897 30.1433 54.7245 27.8454 54.2676C25.5475 53.8106 23.4367 52.6825 21.78 51.0258C20.1234 49.3691 18.9952 47.2584 18.5383 44.9605C18.0813 42.6626 18.3162 40.2808 19.213 38.1164C20.1099 35.9519 21.6285 34.1021 23.5767 32.8008C25.525 31.4995 27.8154 30.8053 30.1583 30.8058C30.4062 30.8058 30.6454 30.8292 30.8904 30.8438V36.6771C30.0744 36.5783 29.2468 36.6473 28.4584 36.8801C27.6701 37.1128 26.9376 37.5043 26.3061 38.0305C25.6747 38.5567 25.1574 39.2065 24.7863 39.9399C24.4151 40.6734 24.1979 41.4749 24.1479 42.2954C24.0979 43.1159 24.2162 43.9379 24.4956 44.711C24.7749 45.484 25.2094 46.1918 25.7723 46.7908C26.3352 47.3898 27.0147 47.8673 27.769 48.1941C28.5232 48.5208 29.3363 48.6899 30.1583 48.6908C31.7805 48.7202 33.3494 48.1117 34.5275 46.9963C35.7057 45.8809 36.399 44.3476 36.4583 42.7263L36.5167 15.5108H42.0992C42.3541 17.9359 43.4534 20.1942 45.2048 21.8908C46.9563 23.5873 49.2485 24.6141 51.6804 24.7917V31.2813Z" fill="#D21338"/>
</svg>
