<svg width="65" height="65" viewBox="0 0 65 65" fill="none" xmlns="http://www.w3.org/2000/svg">
<path d="M55.4658 9.88965C49.334 3.7959 41.1709 0.444336 32.5 0.444336C23.8291 0.444336 15.6787 3.7959 9.54688 9.88965C3.40234 15.9834 0.0253906 24.083 0.0253906 32.7031C0.0253906 41.3232 3.40234 49.4229 9.54688 55.5166C15.6787 61.5977 23.8291 64.9619 32.5 64.9619C41.1709 64.9619 49.3213 61.6104 55.4531 55.5166C61.5977 49.4229 64.9746 41.3232 64.9746 32.7031C64.9746 24.083 61.5977 15.9834 55.4658 9.88965V9.88965ZM57.8398 22.3438H45.792C45.7793 22.3057 45.7793 22.2676 45.7666 22.2295C44.5986 15.9199 42.8848 10.6133 41.5518 7.0459C48.9277 9.61035 54.8691 15.2217 57.8398 22.3438ZM28.8311 5.77637C30.0371 5.61133 31.2559 5.53516 32.5 5.53516C33.5283 5.53516 34.5312 5.59863 35.5215 5.7002C36.6133 8.22656 39.0635 14.4473 40.6123 22.3438H24.8955C26.2158 13.5586 28.4121 6.99512 28.8311 5.77637ZM5.10352 32.7031C5.10352 30.9004 5.28125 29.1357 5.62402 27.4219H19.1699C18.7002 32.5127 18.6621 37.4131 19.0557 42.0215H6.7666C5.6875 39.1143 5.10352 35.9785 5.10352 32.7031V32.7031ZM9.28027 47.0996H19.6904C20.3252 50.9717 21.2773 54.6279 22.5723 58.0176C17.0498 55.8848 12.3906 52.0127 9.28027 47.0996V47.0996ZM19.7666 22.3438H7.17285C10.0928 15.3486 15.8691 9.82617 23.042 7.19824C22.0898 10.4482 20.6934 15.8184 19.7666 22.3438ZM36.1562 59.6299C34.9629 59.7822 33.7441 59.8711 32.5127 59.8711C31.2432 59.8711 29.999 59.7822 28.7676 59.6172C26.8379 55.6055 25.5938 51.3525 24.8574 47.0996H40.8662C39.9648 51.3271 38.4668 55.5801 36.1562 59.6299ZM41.6533 42.0215H24.1719C23.7021 36.8291 23.8545 31.8145 24.2734 27.4219H41.4375C41.9961 31.8271 42.2119 36.8418 41.6533 42.0215V42.0215ZM42.6943 57.9287C44.1924 54.5391 45.3223 50.9209 46.0459 47.0996H55.7324C52.6728 51.9492 48.1025 55.7705 42.6943 57.9287ZM46.7822 42.0215L46.8203 41.5645C47.2266 37.0703 47.1377 32.3223 46.5537 27.4219H59.3887C59.7314 29.1357 59.9092 30.9004 59.9092 32.7031C59.9092 35.9785 59.3252 39.1143 58.2461 42.0215H46.7822V42.0215Z" fill="#D21338"/>
</svg>
